# xmcd CD database file
#
# Track frame offsets:
#	183
#	17203
#	34088
#	50900
#	64963
#	82195
#	99073
#	115383
#	128255
#	141290
#	155488
#	171968
#	189748
#	200973
#	212053
#	222035
#	233718
#	246258
#
# Disc length: 3478 seconds
#
# Revision: 1
# Processed by: cddbd v1.5.1PL2 Copyright (c) Steve Scherf et al.
# Submitted via: CDex 1.51
#
DISCID=0d0d9412
DTITLE=Gabe Chen - Square Dance - Quadrilles
DYEAR=1900
DGENRE=Country
TTITLE0=Golden Slippers
TTITLE1=Camptown Races
TTITLE2=Cripple Creek
TTITLE3=Ragtimpe Annie
TTITLE4=Mississipi Sawyer
TTITLE5=Rabbit In The Log
TTITLE6=Red Wing
TTITLE7=Arkansas Traveler
TTITLE8=Oh! Suzannah
TTITLE9=Fire In The Mountain
TTITLE10=Chinese Breakdown
TTITLE11=Doodle In The Straw
TTITLE12=Flop Eard Mule
TTITLE13=Lonesome Indian
TTITLE14=Clinch Mountain Blues
TTITLE15=Boston Boy
TTITLE16=Murphy's Polka
TTITLE17=Up Jumped The Devil
EXTD=
EXTT0=
EXTT1=
EXTT2=
EXTT3=
EXTT4=
EXTT5=
EXTT6=
EXTT7=
EXTT8=
EXTT9=
EXTT10=
EXTT11=
EXTT12=
EXTT13=
EXTT14=
EXTT15=
EXTT16=
EXTT17=
PLAYORDER=
